<svg width="892" height="217" viewBox="0 0 892 217" fill="none" xmlns="http://www.w3.org/2000/svg">
<path d="M257.667 11.5C294.181 11.5002 323.833 42.9995 323.833 81.9219C323.833 120.844 294.181 152.344 257.667 152.344C221.153 152.344 191.5 120.844 191.5 81.9219C191.5 42.9993 221.153 11.5 257.667 11.5Z" fill="#3565F2" stroke="#3D79F2"/>
<ellipse cx="324.333" cy="140.078" rx="66.6667" ry="70.922" fill="#CEF2F2"/>
<path d="M323.257 69.1671C323.963 73.3048 324.334 77.5674 324.334 81.9219C324.334 120.709 295.065 152.222 258.742 152.833C258.036 148.695 257.667 144.433 257.667 140.078C257.667 101.292 286.934 69.779 323.257 69.1671Z" fill="#6BB3F2"/>
<path d="M52.53 169.38C43.35 169.38 35.2467 167.737 28.22 164.45C21.1933 161.163 15.6967 156.46 11.73 150.34C7.76333 144.22 5.78 136.853 5.78 128.24V123.48H27.88V128.24C27.88 135.38 30.09 140.763 34.51 144.39C38.93 147.903 44.9367 149.66 52.53 149.66C60.2367 149.66 65.96 148.13 69.7 145.07C73.5533 142.01 75.48 138.1 75.48 133.34C75.48 130.053 74.5167 127.39 72.59 125.35C70.7767 123.31 68.0567 121.667 64.43 120.42C60.9167 119.06 56.61 117.813 51.51 116.68L47.6 115.83C39.44 114.017 32.4133 111.75 26.52 109.03C20.74 106.197 16.2633 102.513 13.09 97.98C10.03 93.4467 8.5 87.5533 8.5 80.3C8.5 73.0467 10.2 66.87 13.6 61.77C17.1133 56.5567 21.9867 52.59 28.22 49.87C34.5667 47.0367 41.99 45.62 50.49 45.62C58.99 45.62 66.5267 47.0933 73.1 50.04C79.7867 52.8733 85 57.18 88.74 62.96C92.5933 68.6267 94.52 75.7667 94.52 84.38V89.48H72.42V84.38C72.42 79.8467 71.5133 76.22 69.7 73.5C68 70.6667 65.5067 68.6267 62.22 67.38C58.9333 66.02 55.0233 65.34 50.49 65.34C43.69 65.34 38.6467 66.6433 35.36 69.25C32.1867 71.7433 30.6 75.2 30.6 79.62C30.6 82.5667 31.3367 85.06 32.81 87.1C34.3967 89.14 36.72 90.84 39.78 92.2C42.84 93.56 46.75 94.75 51.51 95.77L55.42 96.62C63.92 98.4333 71.2867 100.757 77.52 103.59C83.8667 106.423 88.7967 110.163 92.31 114.81C95.8233 119.457 97.58 125.407 97.58 132.66C97.58 139.913 95.71 146.317 91.97 151.87C88.3433 157.31 83.13 161.617 76.33 164.79C69.6433 167.85 61.71 169.38 52.53 169.38ZM109.896 167V82.68H130.976V93.73H134.036C135.396 90.7833 137.946 88.0067 141.686 85.4C145.426 82.68 151.092 81.32 158.686 81.32C165.259 81.32 170.982 82.85 175.856 85.91C180.842 88.8567 184.696 92.9933 187.416 98.32C190.136 103.533 191.496 109.653 191.496 116.68V167H170.076V118.38C170.076 112.033 168.489 107.273 165.316 104.1C162.256 100.927 157.836 99.34 152.056 99.34C145.482 99.34 140.382 101.55 136.756 105.97C133.129 110.277 131.316 116.34 131.316 124.16V167H109.896Z" fill="#1F3A5F"/>
<path d="M443.53 169.38C434.35 169.38 426.247 167.737 419.22 164.45C412.193 161.163 406.697 156.46 402.73 150.34C398.763 144.22 396.78 136.853 396.78 128.24V123.48H418.88V128.24C418.88 135.38 421.09 140.763 425.51 144.39C429.93 147.903 435.937 149.66 443.53 149.66C451.237 149.66 456.96 148.13 460.7 145.07C464.553 142.01 466.48 138.1 466.48 133.34C466.48 130.053 465.517 127.39 463.59 125.35C461.777 123.31 459.057 121.667 455.43 120.42C451.917 119.06 447.61 117.813 442.51 116.68L438.6 115.83C430.44 114.017 423.413 111.75 417.52 109.03C411.74 106.197 407.263 102.513 404.09 97.98C401.03 93.4467 399.5 87.5533 399.5 80.3C399.5 73.0467 401.2 66.87 404.6 61.77C408.113 56.5567 412.987 52.59 419.22 49.87C425.567 47.0367 432.99 45.62 441.49 45.62C449.99 45.62 457.527 47.0933 464.1 50.04C470.787 52.8733 476 57.18 479.74 62.96C483.593 68.6267 485.52 75.7667 485.52 84.38V89.48H463.42V84.38C463.42 79.8467 462.513 76.22 460.7 73.5C459 70.6667 456.507 68.6267 453.22 67.38C449.933 66.02 446.023 65.34 441.49 65.34C434.69 65.34 429.647 66.6433 426.36 69.25C423.187 71.7433 421.6 75.2 421.6 79.62C421.6 82.5667 422.337 85.06 423.81 87.1C425.397 89.14 427.72 90.84 430.78 92.2C433.84 93.56 437.75 94.75 442.51 95.77L446.42 96.62C454.92 98.4333 462.287 100.757 468.52 103.59C474.867 106.423 479.797 110.163 483.31 114.81C486.823 119.457 488.58 125.407 488.58 132.66C488.58 139.913 486.71 146.317 482.97 151.87C479.343 157.31 474.13 161.617 467.33 164.79C460.643 167.85 452.71 169.38 443.53 169.38ZM500.896 201V82.68H521.976V92.88H525.036C526.962 89.5933 529.966 86.7033 534.046 84.21C538.126 81.6033 543.962 80.3 551.556 80.3C558.356 80.3 564.646 82 570.426 85.4C576.206 88.6867 580.852 93.56 584.366 100.02C587.879 106.48 589.636 114.3 589.636 123.48V126.2C589.636 135.38 587.879 143.2 584.366 149.66C580.852 156.12 576.206 161.05 570.426 164.45C564.646 167.737 558.356 169.38 551.556 169.38C546.456 169.38 542.149 168.757 538.636 167.51C535.236 166.377 532.459 164.903 530.306 163.09C528.266 161.163 526.622 159.237 525.376 157.31H522.316V201H500.896ZM545.096 150.68C551.782 150.68 557.279 148.583 561.586 144.39C566.006 140.083 568.216 133.85 568.216 125.69V123.99C568.216 115.83 566.006 109.653 561.586 105.46C557.166 101.153 551.669 99 545.096 99C538.522 99 533.026 101.153 528.606 105.46C524.186 109.653 521.976 115.83 521.976 123.99V125.69C521.976 133.85 524.186 140.083 528.606 144.39C533.026 148.583 538.522 150.68 545.096 150.68ZM630.384 169.38C624.377 169.38 618.994 168.36 614.234 166.32C609.474 164.167 605.677 161.107 602.844 157.14C600.124 153.06 598.764 148.13 598.764 142.35C598.764 136.57 600.124 131.753 602.844 127.9C605.677 123.933 609.531 120.987 614.404 119.06C619.391 117.02 625.057 116 631.404 116H654.524V111.24C654.524 107.273 653.277 104.043 650.784 101.55C648.291 98.9433 644.324 97.64 638.884 97.64C633.557 97.64 629.591 98.8867 626.984 101.38C624.377 103.76 622.677 106.877 621.884 110.73L602.164 104.1C603.524 99.7933 605.677 95.8833 608.624 92.37C611.684 88.7433 615.707 85.8533 620.694 83.7C625.794 81.4333 631.971 80.3 639.224 80.3C650.331 80.3 659.114 83.0767 665.574 88.63C672.034 94.1833 675.264 102.23 675.264 112.77V144.22C675.264 147.62 676.851 149.32 680.024 149.32H686.824V167H672.544C668.351 167 664.894 165.98 662.174 163.94C659.454 161.9 658.094 159.18 658.094 155.78V155.61H654.864C654.411 156.97 653.391 158.783 651.804 161.05C650.217 163.203 647.724 165.13 644.324 166.83C640.924 168.53 636.277 169.38 630.384 169.38ZM634.124 152.04C640.131 152.04 645.004 150.397 648.744 147.11C652.597 143.71 654.524 139.233 654.524 133.68V131.98H632.934C628.967 131.98 625.851 132.83 623.584 134.53C621.317 136.23 620.184 138.61 620.184 141.67C620.184 144.73 621.374 147.223 623.754 149.15C626.134 151.077 629.591 152.04 634.124 152.04ZM735.335 169.38C727.175 169.38 719.752 167.68 713.065 164.28C706.492 160.88 701.278 155.95 697.425 149.49C693.572 143.03 691.645 135.21 691.645 126.03V123.65C691.645 114.47 693.572 106.65 697.425 100.19C701.278 93.73 706.492 88.8 713.065 85.4C719.752 82 727.175 80.3 735.335 80.3C743.382 80.3 750.295 81.7167 756.075 84.55C761.855 87.3833 766.502 91.2933 770.015 96.28C773.642 101.153 776.022 106.707 777.155 112.94L756.415 117.36C755.962 113.96 754.942 110.9 753.355 108.18C751.768 105.46 749.502 103.307 746.555 101.72C743.722 100.133 740.152 99.34 735.845 99.34C731.538 99.34 727.628 100.303 724.115 102.23C720.715 104.043 717.995 106.82 715.955 110.56C714.028 114.187 713.065 118.663 713.065 123.99V125.69C713.065 131.017 714.028 135.55 715.955 139.29C717.995 142.917 720.715 145.693 724.115 147.62C727.628 149.433 731.538 150.34 735.845 150.34C742.305 150.34 747.178 148.697 750.465 145.41C753.865 142.01 756.018 137.59 756.925 132.15L777.665 137.08C776.192 143.087 773.642 148.583 770.015 153.57C766.502 158.443 761.855 162.297 756.075 165.13C750.295 167.963 743.382 169.38 735.335 169.38ZM828.654 169.38C820.268 169.38 812.844 167.623 806.384 164.11C800.038 160.483 795.051 155.44 791.424 148.98C787.911 142.407 786.154 134.7 786.154 125.86V123.82C786.154 114.98 787.911 107.33 791.424 100.87C794.938 94.2967 799.868 89.2533 806.214 85.74C812.561 82.1133 819.928 80.3 828.314 80.3C836.588 80.3 843.784 82.17 849.904 85.91C856.024 89.5367 860.784 94.6367 864.184 101.21C867.584 107.67 869.284 115.207 869.284 123.82V131.13H807.914C808.141 136.91 810.294 141.613 814.374 145.24C818.454 148.867 823.441 150.68 829.334 150.68C835.341 150.68 839.761 149.377 842.594 146.77C845.428 144.163 847.581 141.273 849.054 138.1L866.564 147.28C864.978 150.227 862.654 153.457 859.594 156.97C856.648 160.37 852.681 163.317 847.694 165.81C842.708 168.19 836.361 169.38 828.654 169.38ZM808.084 115.15H847.524C847.071 110.277 845.088 106.367 841.574 103.42C838.174 100.473 833.698 99 828.144 99C822.364 99 817.774 100.473 814.374 103.42C810.974 106.367 808.878 110.277 808.084 115.15Z" fill="#1F3A5F"/>
</svg>
