<svg width="890" height="217" viewBox="0 0 890 217" fill="none" xmlns="http://www.w3.org/2000/svg">
<path d="M52.53 169.38C43.35 169.38 35.2467 167.737 28.22 164.45C21.1933 161.163 15.6967 156.46 11.73 150.34C7.76333 144.22 5.78 136.853 5.78 128.24V123.48H27.88V128.24C27.88 135.38 30.09 140.763 34.51 144.39C38.93 147.903 44.9367 149.66 52.53 149.66C60.2367 149.66 65.96 148.13 69.7 145.07C73.5533 142.01 75.48 138.1 75.48 133.34C75.48 130.053 74.5167 127.39 72.59 125.35C70.7767 123.31 68.0567 121.667 64.43 120.42C60.9167 119.06 56.61 117.813 51.51 116.68L47.6 115.83C39.44 114.017 32.4133 111.75 26.52 109.03C20.74 106.197 16.2633 102.513 13.09 97.98C10.03 93.4467 8.5 87.5533 8.5 80.3C8.5 73.0467 10.2 66.87 13.6 61.77C17.1133 56.5567 21.9867 52.59 28.22 49.87C34.5667 47.0367 41.99 45.62 50.49 45.62C58.99 45.62 66.5267 47.0933 73.1 50.04C79.7867 52.8733 85 57.18 88.74 62.96C92.5933 68.6267 94.52 75.7667 94.52 84.38V89.48H72.42V84.38C72.42 79.8467 71.5133 76.22 69.7 73.5C68 70.6667 65.5067 68.6267 62.22 67.38C58.9333 66.02 55.0233 65.34 50.49 65.34C43.69 65.34 38.6467 66.6433 35.36 69.25C32.1867 71.7433 30.6 75.2 30.6 79.62C30.6 82.5667 31.3367 85.06 32.81 87.1C34.3967 89.14 36.72 90.84 39.78 92.2C42.84 93.56 46.75 94.75 51.51 95.77L55.42 96.62C63.92 98.4333 71.2867 100.757 77.52 103.59C83.8667 106.423 88.7967 110.163 92.31 114.81C95.8233 119.457 97.58 125.407 97.58 132.66C97.58 139.913 95.71 146.317 91.97 151.87C88.3433 157.31 83.13 161.617 76.33 164.79C69.6433 167.85 61.71 169.38 52.53 169.38ZM109.896 167V82.68H130.976V93.73H134.036C135.396 90.7833 137.946 88.0067 141.686 85.4C145.426 82.68 151.092 81.32 158.686 81.32C165.259 81.32 170.982 82.85 175.856 85.91C180.842 88.8567 184.696 92.9933 187.416 98.32C190.136 103.533 191.496 109.653 191.496 116.68V167H170.076V118.38C170.076 112.033 168.489 107.273 165.316 104.1C162.256 100.927 157.836 99.34 152.056 99.34C145.482 99.34 140.382 101.55 136.756 105.97C133.129 110.277 131.316 116.34 131.316 124.16V167H109.896Z" fill="white"/>
<path d="M441.53 169.38C432.35 169.38 424.247 167.737 417.22 164.45C410.193 161.163 404.697 156.46 400.73 150.34C396.763 144.22 394.78 136.853 394.78 128.24V123.48H416.88V128.24C416.88 135.38 419.09 140.763 423.51 144.39C427.93 147.903 433.937 149.66 441.53 149.66C449.237 149.66 454.96 148.13 458.7 145.07C462.553 142.01 464.48 138.1 464.48 133.34C464.48 130.053 463.517 127.39 461.59 125.35C459.777 123.31 457.057 121.667 453.43 120.42C449.917 119.06 445.61 117.813 440.51 116.68L436.6 115.83C428.44 114.017 421.413 111.75 415.52 109.03C409.74 106.197 405.263 102.513 402.09 97.98C399.03 93.4467 397.5 87.5533 397.5 80.3C397.5 73.0467 399.2 66.87 402.6 61.77C406.113 56.5567 410.987 52.59 417.22 49.87C423.567 47.0367 430.99 45.62 439.49 45.62C447.99 45.62 455.527 47.0933 462.1 50.04C468.787 52.8733 474 57.18 477.74 62.96C481.593 68.6267 483.52 75.7667 483.52 84.38V89.48H461.42V84.38C461.42 79.8467 460.513 76.22 458.7 73.5C457 70.6667 454.507 68.6267 451.22 67.38C447.933 66.02 444.023 65.34 439.49 65.34C432.69 65.34 427.647 66.6433 424.36 69.25C421.187 71.7433 419.6 75.2 419.6 79.62C419.6 82.5667 420.337 85.06 421.81 87.1C423.397 89.14 425.72 90.84 428.78 92.2C431.84 93.56 435.75 94.75 440.51 95.77L444.42 96.62C452.92 98.4333 460.287 100.757 466.52 103.59C472.867 106.423 477.797 110.163 481.31 114.81C484.823 119.457 486.58 125.407 486.58 132.66C486.58 139.913 484.71 146.317 480.97 151.87C477.343 157.31 472.13 161.617 465.33 164.79C458.643 167.85 450.71 169.38 441.53 169.38ZM498.896 201V82.68H519.976V92.88H523.036C524.962 89.5933 527.966 86.7033 532.046 84.21C536.126 81.6033 541.962 80.3 549.556 80.3C556.356 80.3 562.646 82 568.426 85.4C574.206 88.6867 578.852 93.56 582.366 100.02C585.879 106.48 587.636 114.3 587.636 123.48V126.2C587.636 135.38 585.879 143.2 582.366 149.66C578.852 156.12 574.206 161.05 568.426 164.45C562.646 167.737 556.356 169.38 549.556 169.38C544.456 169.38 540.149 168.757 536.636 167.51C533.236 166.377 530.459 164.903 528.306 163.09C526.266 161.163 524.622 159.237 523.376 157.31H520.316V201H498.896ZM543.096 150.68C549.782 150.68 555.279 148.583 559.586 144.39C564.006 140.083 566.216 133.85 566.216 125.69V123.99C566.216 115.83 564.006 109.653 559.586 105.46C555.166 101.153 549.669 99 543.096 99C536.522 99 531.026 101.153 526.606 105.46C522.186 109.653 519.976 115.83 519.976 123.99V125.69C519.976 133.85 522.186 140.083 526.606 144.39C531.026 148.583 536.522 150.68 543.096 150.68ZM628.384 169.38C622.377 169.38 616.994 168.36 612.234 166.32C607.474 164.167 603.677 161.107 600.844 157.14C598.124 153.06 596.764 148.13 596.764 142.35C596.764 136.57 598.124 131.753 600.844 127.9C603.677 123.933 607.531 120.987 612.404 119.06C617.391 117.02 623.057 116 629.404 116H652.524V111.24C652.524 107.273 651.277 104.043 648.784 101.55C646.291 98.9433 642.324 97.64 636.884 97.64C631.557 97.64 627.591 98.8867 624.984 101.38C622.377 103.76 620.677 106.877 619.884 110.73L600.164 104.1C601.524 99.7933 603.677 95.8833 606.624 92.37C609.684 88.7433 613.707 85.8533 618.694 83.7C623.794 81.4333 629.971 80.3 637.224 80.3C648.331 80.3 657.114 83.0767 663.574 88.63C670.034 94.1833 673.264 102.23 673.264 112.77V144.22C673.264 147.62 674.851 149.32 678.024 149.32H684.824V167H670.544C666.351 167 662.894 165.98 660.174 163.94C657.454 161.9 656.094 159.18 656.094 155.78V155.61H652.864C652.411 156.97 651.391 158.783 649.804 161.05C648.217 163.203 645.724 165.13 642.324 166.83C638.924 168.53 634.277 169.38 628.384 169.38ZM632.124 152.04C638.131 152.04 643.004 150.397 646.744 147.11C650.597 143.71 652.524 139.233 652.524 133.68V131.98H630.934C626.967 131.98 623.851 132.83 621.584 134.53C619.317 136.23 618.184 138.61 618.184 141.67C618.184 144.73 619.374 147.223 621.754 149.15C624.134 151.077 627.591 152.04 632.124 152.04ZM733.335 169.38C725.175 169.38 717.752 167.68 711.065 164.28C704.492 160.88 699.278 155.95 695.425 149.49C691.572 143.03 689.645 135.21 689.645 126.03V123.65C689.645 114.47 691.572 106.65 695.425 100.19C699.278 93.73 704.492 88.8 711.065 85.4C717.752 82 725.175 80.3 733.335 80.3C741.382 80.3 748.295 81.7167 754.075 84.55C759.855 87.3833 764.502 91.2933 768.015 96.28C771.642 101.153 774.022 106.707 775.155 112.94L754.415 117.36C753.962 113.96 752.942 110.9 751.355 108.18C749.768 105.46 747.502 103.307 744.555 101.72C741.722 100.133 738.152 99.34 733.845 99.34C729.538 99.34 725.628 100.303 722.115 102.23C718.715 104.043 715.995 106.82 713.955 110.56C712.028 114.187 711.065 118.663 711.065 123.99V125.69C711.065 131.017 712.028 135.55 713.955 139.29C715.995 142.917 718.715 145.693 722.115 147.62C725.628 149.433 729.538 150.34 733.845 150.34C740.305 150.34 745.178 148.697 748.465 145.41C751.865 142.01 754.018 137.59 754.925 132.15L775.665 137.08C774.192 143.087 771.642 148.583 768.015 153.57C764.502 158.443 759.855 162.297 754.075 165.13C748.295 167.963 741.382 169.38 733.335 169.38ZM826.654 169.38C818.268 169.38 810.844 167.623 804.384 164.11C798.038 160.483 793.051 155.44 789.424 148.98C785.911 142.407 784.154 134.7 784.154 125.86V123.82C784.154 114.98 785.911 107.33 789.424 100.87C792.938 94.2967 797.868 89.2533 804.214 85.74C810.561 82.1133 817.928 80.3 826.314 80.3C834.588 80.3 841.784 82.17 847.904 85.91C854.024 89.5367 858.784 94.6367 862.184 101.21C865.584 107.67 867.284 115.207 867.284 123.82V131.13H805.914C806.141 136.91 808.294 141.613 812.374 145.24C816.454 148.867 821.441 150.68 827.334 150.68C833.341 150.68 837.761 149.377 840.594 146.77C843.428 144.163 845.581 141.273 847.054 138.1L864.564 147.28C862.978 150.227 860.654 153.457 857.594 156.97C854.648 160.37 850.681 163.317 845.694 165.81C840.708 168.19 834.361 169.38 826.654 169.38ZM806.084 115.15H845.524C845.071 110.277 843.088 106.367 839.574 103.42C836.174 100.473 831.698 99 826.144 99C820.364 99 815.774 100.473 812.374 103.42C808.974 106.367 806.878 110.277 806.084 115.15Z" fill="white"/>
</svg>
