<svg width="893" height="217" viewBox="0 0 893 217" fill="none" xmlns="http://www.w3.org/2000/svg">
<path d="M52.53 169.38C43.35 169.38 35.2467 167.737 28.22 164.45C21.1933 161.163 15.6967 156.46 11.73 150.34C7.76333 144.22 5.78 136.853 5.78 128.24V123.48H27.88V128.24C27.88 135.38 30.09 140.763 34.51 144.39C38.93 147.903 44.9367 149.66 52.53 149.66C60.2367 149.66 65.96 148.13 69.7 145.07C73.5533 142.01 75.48 138.1 75.48 133.34C75.48 130.053 74.5167 127.39 72.59 125.35C70.7767 123.31 68.0567 121.667 64.43 120.42C60.9167 119.06 56.61 117.813 51.51 116.68L47.6 115.83C39.44 114.017 32.4133 111.75 26.52 109.03C20.74 106.197 16.2633 102.513 13.09 97.98C10.03 93.4467 8.5 87.5533 8.5 80.3C8.5 73.0467 10.2 66.87 13.6 61.77C17.1133 56.5567 21.9867 52.59 28.22 49.87C34.5667 47.0367 41.99 45.62 50.49 45.62C58.99 45.62 66.5267 47.0933 73.1 50.04C79.7867 52.8733 85 57.18 88.74 62.96C92.5933 68.6267 94.52 75.7667 94.52 84.38V89.48H72.42V84.38C72.42 79.8467 71.5133 76.22 69.7 73.5C68 70.6667 65.5067 68.6267 62.22 67.38C58.9333 66.02 55.0233 65.34 50.49 65.34C43.69 65.34 38.6467 66.6433 35.36 69.25C32.1867 71.7433 30.6 75.2 30.6 79.62C30.6 82.5667 31.3367 85.06 32.81 87.1C34.3967 89.14 36.72 90.84 39.78 92.2C42.84 93.56 46.75 94.75 51.51 95.77L55.42 96.62C63.92 98.4333 71.2867 100.757 77.52 103.59C83.8667 106.423 88.7967 110.163 92.31 114.81C95.8233 119.457 97.58 125.407 97.58 132.66C97.58 139.913 95.71 146.317 91.97 151.87C88.3433 157.31 83.13 161.617 76.33 164.79C69.6433 167.85 61.71 169.38 52.53 169.38ZM109.896 167V82.68H130.976V93.73H134.036C135.396 90.7833 137.946 88.0067 141.686 85.4C145.426 82.68 151.092 81.32 158.686 81.32C165.259 81.32 170.982 82.85 175.856 85.91C180.842 88.8567 184.696 92.9933 187.416 98.32C190.136 103.533 191.496 109.653 191.496 116.68V167H170.076V118.38C170.076 112.033 168.489 107.273 165.316 104.1C162.256 100.927 157.836 99.34 152.056 99.34C145.482 99.34 140.382 101.55 136.756 105.97C133.129 110.277 131.316 116.34 131.316 124.16V167H109.896Z" fill="white"/>
<path d="M258.667 11.5C295.181 11.5002 324.833 42.9995 324.833 81.9219C324.833 120.844 295.181 152.344 258.667 152.344C222.153 152.344 192.5 120.844 192.5 81.9219C192.5 42.9993 222.153 11.5 258.667 11.5Z" fill="#3D6DFF" stroke="#3D79F2"/>
<ellipse cx="325.333" cy="140.078" rx="66.6667" ry="70.922" fill="#6FE7D8"/>
<path d="M324.257 69.167C324.963 73.3048 325.334 77.5674 325.334 81.9219C325.334 120.709 296.065 152.222 259.742 152.833C259.036 148.695 258.667 144.433 258.667 140.078C258.667 101.292 287.934 69.779 324.257 69.167Z" fill="#6BB3F2"/>
<path d="M444.53 169.38C435.35 169.38 427.247 167.737 420.22 164.45C413.193 161.163 407.697 156.46 403.73 150.34C399.763 144.22 397.78 136.853 397.78 128.24V123.48H419.88V128.24C419.88 135.38 422.09 140.763 426.51 144.39C430.93 147.903 436.937 149.66 444.53 149.66C452.237 149.66 457.96 148.13 461.7 145.07C465.553 142.01 467.48 138.1 467.48 133.34C467.48 130.053 466.517 127.39 464.59 125.35C462.777 123.31 460.057 121.667 456.43 120.42C452.917 119.06 448.61 117.813 443.51 116.68L439.6 115.83C431.44 114.017 424.413 111.75 418.52 109.03C412.74 106.197 408.263 102.513 405.09 97.98C402.03 93.4467 400.5 87.5533 400.5 80.3C400.5 73.0467 402.2 66.87 405.6 61.77C409.113 56.5567 413.987 52.59 420.22 49.87C426.567 47.0367 433.99 45.62 442.49 45.62C450.99 45.62 458.527 47.0933 465.1 50.04C471.787 52.8733 477 57.18 480.74 62.96C484.593 68.6267 486.52 75.7667 486.52 84.38V89.48H464.42V84.38C464.42 79.8467 463.513 76.22 461.7 73.5C460 70.6667 457.507 68.6267 454.22 67.38C450.933 66.02 447.023 65.34 442.49 65.34C435.69 65.34 430.647 66.6433 427.36 69.25C424.187 71.7433 422.6 75.2 422.6 79.62C422.6 82.5667 423.337 85.06 424.81 87.1C426.397 89.14 428.72 90.84 431.78 92.2C434.84 93.56 438.75 94.75 443.51 95.77L447.42 96.62C455.92 98.4333 463.287 100.757 469.52 103.59C475.867 106.423 480.797 110.163 484.31 114.81C487.823 119.457 489.58 125.407 489.58 132.66C489.58 139.913 487.71 146.317 483.97 151.87C480.343 157.31 475.13 161.617 468.33 164.79C461.643 167.85 453.71 169.38 444.53 169.38ZM501.896 201V82.68H522.976V92.88H526.036C527.962 89.5933 530.966 86.7033 535.046 84.21C539.126 81.6033 544.962 80.3 552.556 80.3C559.356 80.3 565.646 82 571.426 85.4C577.206 88.6867 581.852 93.56 585.366 100.02C588.879 106.48 590.636 114.3 590.636 123.48V126.2C590.636 135.38 588.879 143.2 585.366 149.66C581.852 156.12 577.206 161.05 571.426 164.45C565.646 167.737 559.356 169.38 552.556 169.38C547.456 169.38 543.149 168.757 539.636 167.51C536.236 166.377 533.459 164.903 531.306 163.09C529.266 161.163 527.622 159.237 526.376 157.31H523.316V201H501.896ZM546.096 150.68C552.782 150.68 558.279 148.583 562.586 144.39C567.006 140.083 569.216 133.85 569.216 125.69V123.99C569.216 115.83 567.006 109.653 562.586 105.46C558.166 101.153 552.669 99 546.096 99C539.522 99 534.026 101.153 529.606 105.46C525.186 109.653 522.976 115.83 522.976 123.99V125.69C522.976 133.85 525.186 140.083 529.606 144.39C534.026 148.583 539.522 150.68 546.096 150.68ZM631.384 169.38C625.377 169.38 619.994 168.36 615.234 166.32C610.474 164.167 606.677 161.107 603.844 157.14C601.124 153.06 599.764 148.13 599.764 142.35C599.764 136.57 601.124 131.753 603.844 127.9C606.677 123.933 610.531 120.987 615.404 119.06C620.391 117.02 626.057 116 632.404 116H655.524V111.24C655.524 107.273 654.277 104.043 651.784 101.55C649.291 98.9433 645.324 97.64 639.884 97.64C634.557 97.64 630.591 98.8867 627.984 101.38C625.377 103.76 623.677 106.877 622.884 110.73L603.164 104.1C604.524 99.7933 606.677 95.8833 609.624 92.37C612.684 88.7433 616.707 85.8533 621.694 83.7C626.794 81.4333 632.971 80.3 640.224 80.3C651.331 80.3 660.114 83.0767 666.574 88.63C673.034 94.1833 676.264 102.23 676.264 112.77V144.22C676.264 147.62 677.851 149.32 681.024 149.32H687.824V167H673.544C669.351 167 665.894 165.98 663.174 163.94C660.454 161.9 659.094 159.18 659.094 155.78V155.61H655.864C655.411 156.97 654.391 158.783 652.804 161.05C651.217 163.203 648.724 165.13 645.324 166.83C641.924 168.53 637.277 169.38 631.384 169.38ZM635.124 152.04C641.131 152.04 646.004 150.397 649.744 147.11C653.597 143.71 655.524 139.233 655.524 133.68V131.98H633.934C629.967 131.98 626.851 132.83 624.584 134.53C622.317 136.23 621.184 138.61 621.184 141.67C621.184 144.73 622.374 147.223 624.754 149.15C627.134 151.077 630.591 152.04 635.124 152.04ZM736.335 169.38C728.175 169.38 720.752 167.68 714.065 164.28C707.492 160.88 702.278 155.95 698.425 149.49C694.572 143.03 692.645 135.21 692.645 126.03V123.65C692.645 114.47 694.572 106.65 698.425 100.19C702.278 93.73 707.492 88.8 714.065 85.4C720.752 82 728.175 80.3 736.335 80.3C744.382 80.3 751.295 81.7167 757.075 84.55C762.855 87.3833 767.502 91.2933 771.015 96.28C774.642 101.153 777.022 106.707 778.155 112.94L757.415 117.36C756.962 113.96 755.942 110.9 754.355 108.18C752.768 105.46 750.502 103.307 747.555 101.72C744.722 100.133 741.152 99.34 736.845 99.34C732.538 99.34 728.628 100.303 725.115 102.23C721.715 104.043 718.995 106.82 716.955 110.56C715.028 114.187 714.065 118.663 714.065 123.99V125.69C714.065 131.017 715.028 135.55 716.955 139.29C718.995 142.917 721.715 145.693 725.115 147.62C728.628 149.433 732.538 150.34 736.845 150.34C743.305 150.34 748.178 148.697 751.465 145.41C754.865 142.01 757.018 137.59 757.925 132.15L778.665 137.08C777.192 143.087 774.642 148.583 771.015 153.57C767.502 158.443 762.855 162.297 757.075 165.13C751.295 167.963 744.382 169.38 736.335 169.38ZM829.654 169.38C821.268 169.38 813.844 167.623 807.384 164.11C801.038 160.483 796.051 155.44 792.424 148.98C788.911 142.407 787.154 134.7 787.154 125.86V123.82C787.154 114.98 788.911 107.33 792.424 100.87C795.938 94.2967 800.868 89.2533 807.214 85.74C813.561 82.1133 820.928 80.3 829.314 80.3C837.588 80.3 844.784 82.17 850.904 85.91C857.024 89.5367 861.784 94.6367 865.184 101.21C868.584 107.67 870.284 115.207 870.284 123.82V131.13H808.914C809.141 136.91 811.294 141.613 815.374 145.24C819.454 148.867 824.441 150.68 830.334 150.68C836.341 150.68 840.761 149.377 843.594 146.77C846.428 144.163 848.581 141.273 850.054 138.1L867.564 147.28C865.978 150.227 863.654 153.457 860.594 156.97C857.648 160.37 853.681 163.317 848.694 165.81C843.708 168.19 837.361 169.38 829.654 169.38ZM809.084 115.15H848.524C848.071 110.277 846.088 106.367 842.574 103.42C839.174 100.473 834.698 99 829.144 99C823.364 99 818.774 100.473 815.374 103.42C811.974 106.367 809.878 110.277 809.084 115.15Z" fill="white"/>
</svg>
